<!DOCTYPE svg PUBLIC "-//W3C//DTD SVG 1.1//EN" "http://www.w3.org/Graphics/SVG/1.1/DTD/svg11.dtd">
<!-- Uploaded to: SVG Repo, www.svgrepo.com, Transformed by: SVG Repo Mixer Tools -->
<svg height="64px" width="64px" version="1.1" id="Icons" xmlns="http://www.w3.org/2000/svg" xmlns:xlink="http://www.w3.org/1999/xlink" viewBox="0 0 32 32" xml:space="preserve" fill="#000000">
<g id="SVGRepo_bgCarrier" stroke-width="0"/>
<g id="SVGRepo_tracerCarrier" stroke-linecap="round" stroke-linejoin="round"/>
<g id="SVGRepo_iconCarrier"> <style type="text/css"> .st0{fill:#FFFFFF;} </style> <g> <path d="M28,14H14c-1.1,0-2-0.9-2-2s0.9-2,2-2h1h13c0.6,0,1-0.4,1-1s-0.4-1-1-1H15h-1H7C5.9,8,5,7.1,5,6s0.9-2,2-2h14 c0.6,0,1-0.4,1-1s-0.4-1-1-1H7C4.8,2,3,3.8,3,6v15c0,2.2,1.8,4,4,4h3v2c0,2.2,1.8,4,4,4h14c0.6,0,1-0.4,1-1V15 C29,14.4,28.6,14,28,14z"/> <path d="M28,11H14c-0.6,0-1,0.4-1,1s0.4,1,1,1h14c0.6,0,1-0.4,1-1S28.6,11,28,11z"/> <path d="M21,5H7C6.4,5,6,5.4,6,6s0.4,1,1,1h14c0.6,0,1-0.4,1-1S21.6,5,21,5z"/> </g> </g>
</svg>